<svg xmlns="http://www.w3.org/2000/svg" width="1200" height="420" viewBox="0 0 1200 420" fill="none">
  <defs>
    <linearGradient id="bg" x1="0" y1="0" x2="1200" y2="420" gradientUnits="userSpaceOnUse">
      <stop stop-color="#070A08"/>
      <stop offset="0.55" stop-color="#050705"/>
      <stop offset="1" stop-color="#070A08"/>
    </linearGradient>
    <radialGradient id="glow" cx="0" cy="0" r="1" gradientUnits="userSpaceOnUse" gradientTransform="translate(360 120) rotate(18) scale(520 260)">
      <stop stop-color="rgba(0,255,122,0.22)"/>
      <stop offset="0.7" stop-color="rgba(0,0,0,0)"/>
    </radialGradient>
    <linearGradient id="stroke" x1="260" y1="80" x2="940" y2="340" gradientUnits="userSpaceOnUse">
      <stop stop-color="rgba(0,255,122,0.95)"/>
      <stop offset="0.55" stop-color="rgba(255,215,0,0.55)"/>
      <stop offset="1" stop-color="rgba(0,255,122,0.55)"/>
    </linearGradient>
  </defs>

  <rect width="1200" height="420" fill="url(#bg)"/>
  <rect width="1200" height="420" fill="url(#glow)"/>

  <g opacity="0.45">
    <path d="M90 110H1110" stroke="rgba(255,255,255,0.05)" stroke-width="2"/>
    <path d="M90 170H1110" stroke="rgba(255,255,255,0.04)" stroke-width="2"/>
    <path d="M90 230H1110" stroke="rgba(255,255,255,0.04)" stroke-width="2"/>
    <path d="M90 290H1110" stroke="rgba(255,255,255,0.04)" stroke-width="2"/>
  </g>

  <g opacity="0.95">
    <path d="M360 132h480a22 22 0 0 1 22 22v112a22 22 0 0 1-22 22H360a22 22 0 0 1-22-22V154a22 22 0 0 1 22-22Z" stroke="url(#stroke)" stroke-width="3"/>
    <path d="M420 210h360" stroke="rgba(0,255,122,0.45)" stroke-width="4" stroke-linecap="round"/>
    <path d="M420 250h240" stroke="rgba(0,255,122,0.28)" stroke-width="4" stroke-linecap="round"/>
    <circle cx="820" cy="210" r="18" stroke="rgba(255,215,0,0.45)" stroke-width="3"/>
    <path d="M820 198v24M808 210h24" stroke="rgba(0,255,122,0.55)" stroke-width="3" stroke-linecap="round"/>
  </g>

  <g opacity="0.7">
    <path d="M900 140v140" stroke="rgba(0,255,122,0.18)" stroke-width="2"/>
    <circle cx="900" cy="140" r="6" fill="rgba(0,255,122,0.55)"/>
    <circle cx="900" cy="210" r="5" fill="rgba(255,215,0,0.38)"/>
    <circle cx="900" cy="280" r="4" fill="rgba(0,255,122,0.35)"/>
  </g>
</svg>
