<svg xmlns="http://www.w3.org/2000/svg" width="1200" height="420" viewBox="0 0 1200 420" fill="none">
  <defs>
    <linearGradient id="bg" x1="0" y1="0" x2="1200" y2="420" gradientUnits="userSpaceOnUse">
      <stop stop-color="#07080C"/>
      <stop offset="0.55" stop-color="#06070A"/>
      <stop offset="1" stop-color="#07080C"/>
    </linearGradient>
    <radialGradient id="glow" cx="0" cy="0" r="1" gradientUnits="userSpaceOnUse" gradientTransform="translate(360 120) rotate(18) scale(520 260)">
      <stop stop-color="rgba(120,220,255,0.22)"/>
      <stop offset="0.7" stop-color="rgba(0,0,0,0)"/>
    </radialGradient>
    <linearGradient id="stroke" x1="260" y1="90" x2="940" y2="340" gradientUnits="userSpaceOnUse">
      <stop stop-color="rgba(120,220,255,0.95)"/>
      <stop offset="0.55" stop-color="rgba(0,255,255,0.55)"/>
      <stop offset="1" stop-color="rgba(120,220,255,0.55)"/>
    </linearGradient>
  </defs>

  <rect width="1200" height="420" fill="url(#bg)"/>
  <rect width="1200" height="420" fill="url(#glow)"/>

  <g opacity="0.45">
    <path d="M90 110H1110" stroke="rgba(255,255,255,0.05)" stroke-width="2"/>
    <path d="M90 170H1110" stroke="rgba(255,255,255,0.04)" stroke-width="2"/>
    <path d="M90 230H1110" stroke="rgba(255,255,255,0.04)" stroke-width="2"/>
    <path d="M90 290H1110" stroke="rgba(255,255,255,0.04)" stroke-width="2"/>
  </g>

  <g opacity="0.95">
    <path d="M330 142h540a22 22 0 0 1 22 22v92a22 22 0 0 1-22 22H330a22 22 0 0 1-22-22v-92a22 22 0 0 1 22-22Z" stroke="url(#stroke)" stroke-width="3"/>
    <path d="M380 192h440" stroke="rgba(120,220,255,0.35)" stroke-width="3" stroke-linecap="round"/>
    <path d="M410 222h380" stroke="rgba(0,255,255,0.22)" stroke-width="3" stroke-linecap="round"/>
    <path d="M440 252h320" stroke="rgba(120,220,255,0.18)" stroke-width="3" stroke-linecap="round"/>
    <circle cx="330" cy="290" r="6" fill="rgba(120,220,255,0.55)"/>
    <circle cx="870" cy="290" r="6" fill="rgba(0,255,255,0.42)"/>
    <path d="M330 290h540" stroke="rgba(120,220,255,0.16)" stroke-width="2"/>
  </g>
</svg>
