<svg xmlns="http://www.w3.org/2000/svg" width="1200" height="420" viewBox="0 0 1200 420" fill="none">
  <defs>
    <linearGradient id="bg" x1="0" y1="0" x2="1200" y2="420" gradientUnits="userSpaceOnUse">
      <stop stop-color="#0B0A08"/>
      <stop offset="0.55" stop-color="#080706"/>
      <stop offset="1" stop-color="#0B0A08"/>
    </linearGradient>
    <radialGradient id="glow" cx="0" cy="0" r="1" gradientUnits="userSpaceOnUse" gradientTransform="translate(360 120) rotate(18) scale(520 260)">
      <stop stop-color="rgba(255,165,0,0.18)"/>
      <stop offset="0.55" stop-color="rgba(255,215,0,0.16)"/>
      <stop offset="1" stop-color="rgba(0,0,0,0)"/>
    </radialGradient>
    <linearGradient id="stroke" x1="260" y1="90" x2="940" y2="340" gradientUnits="userSpaceOnUse">
      <stop stop-color="rgba(255,215,0,0.95)"/>
      <stop offset="0.55" stop-color="rgba(255,165,0,0.85)"/>
      <stop offset="1" stop-color="rgba(255,215,0,0.55)"/>
    </linearGradient>
  </defs>

  <rect width="1200" height="420" fill="url(#bg)"/>
  <rect width="1200" height="420" fill="url(#glow)"/>

  <g opacity="0.45">
    <path d="M90 110H1110" stroke="rgba(255,255,255,0.05)" stroke-width="2"/>
    <path d="M90 170H1110" stroke="rgba(255,255,255,0.04)" stroke-width="2"/>
    <path d="M90 230H1110" stroke="rgba(255,255,255,0.04)" stroke-width="2"/>
    <path d="M90 290H1110" stroke="rgba(255,255,255,0.04)" stroke-width="2"/>
  </g>

  <g opacity="0.95">
    <path d="M370 132h460a22 22 0 0 1 22 22v112a22 22 0 0 1-22 22H370a22 22 0 0 1-22-22V154a22 22 0 0 1 22-22Z" stroke="url(#stroke)" stroke-width="3"/>
    <path d="M420 170h360" stroke="rgba(255,215,0,0.35)" stroke-width="3" stroke-linecap="round"/>
    <path d="M420 210h300" stroke="rgba(255,165,0,0.28)" stroke-width="3" stroke-linecap="round"/>
    <path d="M420 250h260" stroke="rgba(255,215,0,0.22)" stroke-width="3" stroke-linecap="round"/>
    <path d="M720 210l40-24" stroke="rgba(255,215,0,0.25)" stroke-width="3" stroke-linecap="round"/>
    <circle cx="780" cy="186" r="10" stroke="rgba(255,215,0,0.45)" stroke-width="3"/>
  </g>
</svg>
