<svg xmlns="http://www.w3.org/2000/svg" width="1200" height="420" viewBox="0 0 1200 420" fill="none">
  <defs>
    <linearGradient id="bg" x1="0" y1="0" x2="1200" y2="420" gradientUnits="userSpaceOnUse">
      <stop stop-color="#08060B"/>
      <stop offset="0.55" stop-color="#070509"/>
      <stop offset="1" stop-color="#08060B"/>
    </linearGradient>
    <radialGradient id="glow" cx="0" cy="0" r="1" gradientUnits="userSpaceOnUse" gradientTransform="translate(360 120) rotate(20) scale(520 260)">
      <stop stop-color="rgba(196,126,255,0.22)"/>
      <stop offset="0.7" stop-color="rgba(0,0,0,0)"/>
    </radialGradient>
    <linearGradient id="stroke" x1="250" y1="90" x2="960" y2="340" gradientUnits="userSpaceOnUse">
      <stop stop-color="rgba(196,126,255,0.95)"/>
      <stop offset="0.55" stop-color="rgba(0,255,255,0.55)"/>
      <stop offset="1" stop-color="rgba(196,126,255,0.55)"/>
    </linearGradient>
  </defs>

  <rect width="1200" height="420" fill="url(#bg)"/>
  <rect width="1200" height="420" fill="url(#glow)"/>

  <g opacity="0.45">
    <path d="M90 110H1110" stroke="rgba(255,255,255,0.05)" stroke-width="2"/>
    <path d="M90 170H1110" stroke="rgba(255,255,255,0.04)" stroke-width="2"/>
    <path d="M90 230H1110" stroke="rgba(255,255,255,0.04)" stroke-width="2"/>
    <path d="M90 290H1110" stroke="rgba(255,255,255,0.04)" stroke-width="2"/>
  </g>

  <g opacity="0.95">
    <path d="M420 132h360a26 26 0 0 1 26 26v104a26 26 0 0 1-26 26H420a26 26 0 0 1-26-26V158a26 26 0 0 1 26-26Z" stroke="url(#stroke)" stroke-width="3"/>
    <path d="M470 260c26-44 64-66 114-66 44 0 82 16 114 48 26 26 54 40 84 42" stroke="rgba(196,126,255,0.35)" stroke-width="3" stroke-linecap="round"/>
    <circle cx="520" cy="210" r="14" stroke="rgba(0,255,255,0.38)" stroke-width="3"/>
    <circle cx="640" cy="202" r="14" stroke="rgba(196,126,255,0.38)" stroke-width="3"/>
    <circle cx="740" cy="244" r="14" stroke="rgba(0,255,255,0.32)" stroke-width="3"/>
  </g>

  <g opacity="0.72">
    <circle cx="900" cy="140" r="6" fill="rgba(196,126,255,0.55)"/>
    <circle cx="930" cy="170" r="5" fill="rgba(0,255,255,0.42)"/>
    <circle cx="870" cy="182" r="4" fill="rgba(196,126,255,0.35)"/>
    <path d="M870 182h64l22-22h70" stroke="rgba(196,126,255,0.16)" stroke-width="2"/>
  </g>
</svg>
