<svg xmlns="http://www.w3.org/2000/svg" width="1200" height="420" viewBox="0 0 1200 420" fill="none">
  <defs>
    <linearGradient id="bg" x1="0" y1="0" x2="1200" y2="420" gradientUnits="userSpaceOnUse">
      <stop stop-color="#07080B"/>
      <stop offset="0.55" stop-color="#060608"/>
      <stop offset="1" stop-color="#07080B"/>
    </linearGradient>
    <radialGradient id="glow" cx="0" cy="0" r="1" gradientUnits="userSpaceOnUse" gradientTransform="translate(360 120) rotate(18) scale(520 260)">
      <stop stop-color="rgba(0,255,255,0.26)"/>
      <stop offset="0.6" stop-color="rgba(196,126,255,0.10)"/>
      <stop offset="1" stop-color="rgba(0,0,0,0)"/>
    </radialGradient>
    <linearGradient id="stroke" x1="260" y1="80" x2="940" y2="340" gradientUnits="userSpaceOnUse">
      <stop stop-color="rgba(0,255,255,0.95)"/>
      <stop offset="0.55" stop-color="rgba(196,126,255,0.85)"/>
      <stop offset="1" stop-color="rgba(0,255,255,0.55)"/>
    </linearGradient>
  </defs>

  <rect width="1200" height="420" fill="url(#bg)"/>
  <rect width="1200" height="420" fill="url(#glow)"/>

  <g opacity="0.4">
    <path d="M90 100H1110" stroke="rgba(255,255,255,0.05)" stroke-width="2"/>
    <path d="M90 160H1110" stroke="rgba(255,255,255,0.04)" stroke-width="2"/>
    <path d="M90 220H1110" stroke="rgba(255,255,255,0.04)" stroke-width="2"/>
    <path d="M90 280H1110" stroke="rgba(255,255,255,0.04)" stroke-width="2"/>
    <path d="M90 340H1110" stroke="rgba(255,255,255,0.05)" stroke-width="2"/>
  </g>

  <g opacity="0.95">
    <path d="M600 92l260 140-260 140-260-140 260-140Z" stroke="url(#stroke)" stroke-width="3" stroke-linejoin="round"/>
    <path d="M600 142l168 90-168 90-168-90 168-90Z" stroke="rgba(0,255,255,0.35)" stroke-width="3" stroke-linejoin="round"/>
    <circle cx="600" cy="232" r="22" stroke="rgba(196,126,255,0.55)" stroke-width="3"/>
    <path d="M600 210v44M578 232h44" stroke="rgba(0,255,255,0.55)" stroke-width="3" stroke-linecap="round"/>
  </g>

  <g opacity="0.65">
    <circle cx="880" cy="130" r="6" fill="rgba(0,255,255,0.55)"/>
    <circle cx="910" cy="160" r="5" fill="rgba(196,126,255,0.48)"/>
    <circle cx="850" cy="172" r="4" fill="rgba(0,255,255,0.38)"/>
    <path d="M850 172h64l22-22h70" stroke="rgba(0,255,255,0.18)" stroke-width="2"/>
  </g>
</svg>
